<?xml version="1.0" encoding="utf-8"?>
<!-- Generator: Adobe Illustrator 27.6.1, SVG Export Plug-In . SVG Version: 6.00 Build 0)  -->
<svg version="1.1" id="Layer_1" xmlns="http://www.w3.org/2000/svg" xmlns:xlink="http://www.w3.org/1999/xlink" x="0px" y="0px"
	 viewBox="0 0 1014.2 1030.1" style="enable-background:new 0 0 1014.2 1030.1;" xml:space="preserve">
<style type="text/css">
	.st0{fill:#FFFFFF;}
</style>
<g>
	<path class="st0" d="M1011,369.2c-2.8-13.5-14.8-23.2-28.5-23.2h-92c13.3-15,29.7-36.1,44.1-62.4C975,210.3,981.8,131,954.3,54.5
		c-3.6-10.1-12.3-17.7-22.9-19.3c-10.6-1.6-20.9,2.5-27.3,11c-2.4,2.7-36.5,40-136.2,77.8c-34.2-29.1-76.4-50.3-126.5-63.3
		C626.9,25.2,592,0,551.3,0h-88.5c-40.7,0-75.5,25.2-90,60.7c-50.1,13-92.3,34.1-126.5,63.3c-99.7-37.8-133.9-75.1-136.2-77.8
		c-6.4-8.5-16.7-12.5-27.3-11c-10.6,1.6-19.3,9.2-22.9,19.3C32.4,131,39.2,210.3,79.7,283.7c14.5,26.3,30.9,47.4,44.1,62.4h-92
		c-13.8,0-25.7,9.7-28.5,23.2c-0.7,3.5-17.3,85.6,32.7,147.3c29.4,36.2,74.2,57,133.4,61.9l1,69.4v109.5c0,101.6,77.2,185.5,176,196
		c4.7,5.9,9.8,11.5,15.2,16.9c31.4,31.4,71.2,51.3,114.3,57.6c9.9,1.4,19.9,2.2,30.1,2.2c5,0,10-0.2,15-0.5
		c48.9-3.5,94.4-24.2,129.4-59.3c5.3-5.3,10.3-10.9,14.9-16.7c100.1-9.3,178.8-93.8,178.8-196.3V647.8l1-69.4
		c59.2-4.9,104-25.7,133.4-61.9C1028.3,454.8,1011.7,372.7,1011,369.2z M845.3,519.8v-58.1c0-16.1-13.1-29.2-29.2-29.2
		c-16.1,0-29.2,13.1-29.2,29.2v88.5l-1.4,97.1c0,0.1,0,0.3,0,0.4v43.6c-2.6-1.8-5.4-3.7-8.3-5.5c-59.3-37.5-150.2-56.5-270.2-56.5
		s-210.8,19-270.2,56.5c-2.9,1.8-5.7,3.7-8.3,5.5v-43.6c0-0.1,0-0.3,0-0.4l-1.4-97.1v-88.5c0-16.1-13.1-29.2-29.2-29.2
		s-29.2,13.1-29.2,29.2v58.1c-39.9-4.2-69.2-17.5-87.4-39.7c-19.7-24-23.3-54.8-23.1-75.6H155h44.5h615.3h44.5h96.6
		c0.2,20.7-3.5,51.4-22.9,75.3C914.8,502.1,885.4,515.6,845.3,519.8z M701.4,885c5.3-17.7,8.2-36.3,8.6-55.2
		c14.5-10.4,22.2-21.9,20-32.3c-4.6-21.9-52-30.5-105.8-19.1c-53.8,11.4-93.6,38.3-89,60.2c0.9,4.4,3.5,8.2,7.6,11.4
		c-8.1,12.4-21.9,20-36.9,20c-14.5,0-27.8-7.1-36-18.7c5-3.5,8.2-7.8,9.2-12.7c4.6-21.9-35.2-48.9-89-60.2
		c-53.8-11.4-101.1-2.8-105.8,19.1c-2.1,9.7,4.7,20.4,17.5,30.3c0.2,19.2,3,37.9,8.2,55.8c-47.9-21.9-81.3-70.3-81.3-126.3v-7.2
		c6.5-8.3,17.8-19.4,36.8-30.5c65.6-38.5,167.6-46.6,241.6-46.6s176,8.1,241.6,46.6c19,11.2,30.3,22.3,36.8,30.5v7.2
		C785.6,814.5,750.8,863.7,701.4,885z M505.8,980.7c-31.9,0-61.5-9.7-86.2-26.2c-12.2-8.2-23.1-18-32.5-29.2
		c-7.2-8.6-13.6-18.1-18.8-28.2c-0.2-0.3-0.3-0.7-0.5-1c-6.9-13.5-11.8-28.1-14.5-43.6c-1.5-8.7-2.3-17.5-2.3-26.6h0
		c27.6,0,52.9,14,68,36.7c1.5,2.3,2.9,4.6,4.2,7c5.3,10.1,12.5,19,20.9,26.5c16.4,14.5,38,23.2,61.6,23.2c23.6,0,45.2-8.8,61.6-23.2
		c8.5-7.5,15.6-16.4,20.9-26.5c1.3-2.4,2.7-4.8,4.2-7c15.1-22.7,40.4-36.7,68-36.7c0,9.4-0.8,18.5-2.4,27.4
		c-2.7,15.1-7.6,29.5-14.4,42.8c-1.9,3.7-3.9,7.3-6.1,10.8c-4,6.4-8.4,12.6-13.2,18.3c-9.4,11.2-20.3,21-32.5,29.2
		C567.4,971.1,537.7,980.7,505.8,980.7z M462.9,58.4h88.5c15,0,28,8.6,34.5,21.1c2.7,5.3,4.2,11.2,4.2,17.5v12.6v6.7
		c-4.9-3.2-10-6.2-15.3-8.9c-20.3-10.2-43.3-16-67.6-16c-24.3,0-47.2,5.8-67.6,16c-5.3,2.7-10.4,5.6-15.3,8.9v-6.7V97
		c0-6.3,1.5-12.3,4.2-17.5C434.8,67,447.9,58.4,462.9,58.4z M699.2,146.6c7.2,4.3,14.1,8.8,20.6,13.7c3.3,2.5,6.5,5,9.6,7.7
		c7.8,6.6,15.1,13.7,21.8,21.4c0.5,0.6,1,1.2,1.5,1.8c17.5,20.5,29.4,43,37.4,64.8c0.8,2.3,1.6,4.6,2.4,6.9h-32.9h-5h-31h-31h-36.2
		c0.9-6.8,1.4-13.6,1.4-20.7c0-12.9-1.6-25.5-4.7-37.4c-1.3-5.2-3-10.3-4.8-15.3v-14v-29.2v-22.6
		C666.9,129.9,683.9,137.6,699.2,146.6z M910.3,116.9c7,46.2-1.6,92.1-25.9,136.9c-7.8,14.5-16.4,27.1-24.5,37.6
		c-6.3-37-20.2-80.9-49.5-121.5C856.4,151,888.5,132.2,910.3,116.9z M780.6,306.7H803c1.4,9.7,2.3,18.7,2.7,26.8
		c0.2,4.5,0.4,8.8,0.4,12.7h-20.5h-26.9H616.3c11-11.6,20.2-24.9,27.1-39.4h65h31H780.6z M507.1,149.8c24.7,0,47.2,9.8,63.8,25.7
		c7.8,7.4,14.3,16.2,19.1,25.9c0.5,1.1,1,2.2,1.5,3.2c5.1,11.5,8,24.2,8,37.6c0,6-0.6,11.8-1.7,17.5c-0.2,1.1-0.4,2.1-0.7,3.1
		c-2.1,9.3-5.7,18-10.3,26c-3.8,6.5-8.3,12.4-13.5,17.7c-16.8,17.3-40.3,28-66.2,28c-25.9,0-49.4-10.8-66.2-28
		c-5.2-5.3-9.7-11.3-13.5-17.7c-4.7-8-8.2-16.7-10.3-26c-0.2-1-0.5-2.1-0.7-3.1c-1.1-5.7-1.7-11.5-1.7-17.5c0-13.4,2.9-26.1,8-37.6
		c0.5-1.1,1-2.2,1.5-3.2c4.8-9.7,11.3-18.5,19.1-25.9C459.9,159.6,482.4,149.8,507.1,149.8z M397.9,346.1H255.6h-26.9h-20.5
		c0-3.9,0.2-8.1,0.4-12.7c0.4-8.1,1.3-17.1,2.7-26.8h22.4h41.1h31h65C377.7,321.2,386.9,334.5,397.9,346.1z M365.8,123.7v22.6v29.2
		v14c-1.9,5-3.5,10.1-4.8,15.3c-3.1,12-4.7,24.5-4.7,37.4c0,7,0.5,13.9,1.4,20.7h-36.2h-31h-31h-5h-32.9c0.8-2.3,1.6-4.6,2.4-6.9
		c8-21.9,19.9-44.3,37.4-64.8c0.5-0.6,1-1.2,1.5-1.8c6.7-7.6,14-14.8,21.8-21.4c3.1-2.6,6.3-5.2,9.6-7.7c6.5-4.9,13.4-9.5,20.6-13.7
		C330.3,137.6,347.3,129.9,365.8,123.7z M103.9,116.9c21.8,15.3,53.9,34.1,100,53.1c-29.4,40.6-43.3,84.5-49.5,121.5
		c-7.8-10.1-16-22.2-23.6-35.9C105.8,210.2,96.8,163.7,103.9,116.9z"/>
	<ellipse class="st0" cx="342.9" cy="530.3" rx="52.1" ry="68.6"/>
	<ellipse class="st0" cx="660.6" cy="530.3" rx="52.1" ry="68.6"/>
</g>
</svg>
