<?xml version="1.0" encoding="utf-8"?>
<!-- Generator: Adobe Illustrator 27.6.1, SVG Export Plug-In . SVG Version: 6.00 Build 0)  -->
<svg version="1.1" id="Layer_1" xmlns="http://www.w3.org/2000/svg" xmlns:xlink="http://www.w3.org/1999/xlink" x="0px" y="0px"
	 viewBox="0 0 192.1 46.5" style="enable-background:new 0 0 192.1 46.5;" xml:space="preserve">
<style type="text/css">
	.st0{fill:#FFFFFF;}
	.st1{font-family:'Gotham-Medium';}
	.st2{font-size:8.3336px;}
</style>
<g>
	<g>
		<path class="st0" d="M55.2,21.5l-5.3-8.2c1-1.3,1.9-2.3,2.6-3.2c0.4-0.5,1.2-1.2,2.1-2c1.2-1.1,1.6-1.1,1.6-1.1c0,0,0,0,0,0l0,0h0
			c0.4,0,0.7-0.1,0.9-0.3c0.2-0.2,0.3-0.5,0.3-0.8c0-0.6-0.3-1.1-1-1.6l0,0c-0.4-0.2-0.7-0.3-1-0.3c-1.5,0-3.7,1.7-6.9,5.1
			c-3.5,3.9-6.6,7.7-9.2,11.2l-4-9.6c-1.5-4.4-2.4-6.9-2.7-7.5c-0.5-1-1.1-1.8-1.8-2.3c-0.7-0.5-1.3-0.8-2-0.8c-0.5,0-1,0.2-1.3,0.5
			c-0.4,0.4-0.6,0.8-0.6,1.4c0,0.4,0.1,1.1,0.3,2.1c0.2,1,0.5,2.2,0.9,3.5c0.5,1.6,0.6,2.1,0.7,2.3l0,0c0.3,0.8,0.3,1,0.3,1l0,0.1
			c1.4,4.7,2.1,8.6,2.1,11.6c0,1.2-0.1,2.1-0.3,2.8c-0.3,1-0.2,1.2-0.1,1.3l0,0c0.3,0.1,0.5,0.1,0.6,0.1c0.7,0,1.2-0.4,1.7-1.2
			c0.4-0.7,0.7-1.9,0.7-3.3c0-0.8-0.1-1.8-0.2-2.9c0.5,1.1,1,2.5,1.8,4.3l0.6,1.3c-1,1.5-2.6,4-4.8,7.5c-1.8,2.9-2.9,4.6-3.2,5
			c-0.7,1.2-1.3,2.3-1.8,3.3c-0.4,1-0.7,1.6-0.7,2c-0.1,0.4-0.1,0.6-0.1,0.8c0,0.9,0.3,1.6,1,2.2c0.7,0.5,1.4,0.8,2.1,0.8
			c0.5,0,0.9-0.1,1.3-0.4c0.3-0.3,0.5-0.7,0.4-1.2c-0.1-0.6,0.2-1.8,0.9-3.5c0.7-1.7,1.8-3.8,3.3-6.2c1.3-2.4,2.6-4.6,3.8-6.4
			c1.1,2.1,2.7,4.3,4.7,6.7c2.1,2.5,4.2,4.7,6.4,6.4c2.2,1.8,4,2.6,5.4,2.6c0.6,0,1.1-0.2,1.6-0.6c0.7-0.3,1-0.6,1-1.1
			c0-0.5-0.4-0.8-1.1-1l-0.5-0.2l0,0c-1-0.3-2.3-1.2-4-2.7c-1.7-1.5-3.5-3.5-5.4-5.9c-1.9-2.4-3.7-5.2-5.3-8.3
			c1.6-2.3,3.1-4.4,4.4-6.3l0.5,0.7l8.5,13h0.2l8.6-13.1v20h6.7V8.5h-7.3L55.2,21.5z"/>
		<rect x="78.2" y="8.5" class="st0" width="6.7" height="30.7"/>
		<polygon class="st0" points="113.2,27.4 98.8,8.5 92.6,8.5 92.6,39.2 99.2,39.2 99.2,19.7 114.1,39.2 119.8,39.2 119.8,8.5 
			113.2,8.5 		"/>
		<polygon class="st0" points="133.9,26.7 148.4,26.7 148.4,20.7 133.9,20.7 133.9,14.5 150.3,14.5 150.3,8.5 127.2,8.5 127.2,39.2 
			150.5,39.2 150.5,33.2 133.9,33.2 		"/>
		<path class="st0" d="M175.6,28.2c3.9-1.4,6.6-4.6,6.6-9.5v-0.1c0-2.9-0.9-5.3-2.6-7c-2-2-5-3.1-8.9-3.1h-14v30.7h6.7v-9.8h5.3
			l6.6,9.8h7.9L175.6,28.2z M175.3,19c0,2.6-1.9,4.3-5.2,4.3h-6.8v-8.8h6.7C173.3,14.6,175.3,16.1,175.3,19L175.3,19z"/>
		<path class="st0" d="M28.7,18.3c0-3.4-0.6-6.4-1.8-8.8C25.6,7.1,24,5.2,22,4c-2-1.2-4-1.8-6.2-1.8c-1.5,0-3,0.3-4.4,1
			c-1.4,0.6-2,1.5-2,2.6c0,0.5,0.1,0.8,0.2,1.1l0,0c0.1,0.2,0.2,0.3,0.2,0.3V8l0.4-0.7c0.3-0.6,1-1,2.1-1.4c1.1-0.4,2.4-0.6,3.7-0.6
			c2.1,0,3.7,0.5,4.8,1.4c1.2,1,2.1,2.3,2.6,4c0.6,1.7,0.8,4,0.8,6.9l0,1.4c0,1-0.2,2.6-0.6,4.7c-0.4,2.2-0.8,4-1.2,5.4
			c-0.8,2.6-1.8,4.9-3.1,6.8c-1.2,1.9-2.6,3.3-4,4.3c-1.4,1-2.8,1.5-4.1,1.5c-0.6,0-1.2-0.1-1.8-0.3c-1.4-0.6-2.6-1.8-3.5-3.8
			c-0.9-2-1.4-4.5-1.4-7.5c0-1.8,0.2-3.8,0.6-5.9c0.4-2.5,1.3-4.9,2.4-7c1.2-2.2,2.5-3.9,3.9-5.2c1.4-1.3,2.6-1.9,3.6-1.9
			c0.3,0,0.4,0,0.5,0c0.3,0.1,0.5,0.1,0.7,0.1c0.1,0,0.2,0,0.3-0.1c0.4-0.1,0.6-0.4,0.6-0.9c0-0.1,0.1-0.3,0.1-0.5
			c0-0.3-0.1-0.6-0.3-0.7c-0.2-0.1-0.5-0.3-0.9-0.4c-0.4-0.1-0.9-0.2-1.5-0.2c-1.6,0-3.5,0.5-5.5,1.6c-2,1.1-3.9,2.9-5.6,5.3
			c-1.7,2.5-2.8,5.7-3.4,9.6C0.1,24.8,0,26,0,27.4c0,3.8,0.7,7.4,2.1,10.7c1.4,3.3,3.8,5.4,7.1,6c0.9,0.1,1.6,0.2,2,0.2
			c2.8,0,5.3-0.9,7.5-2.6c2.2-1.7,4-3.9,5.4-6.3c1.4-2.4,2.4-4.8,3.1-7C28.2,24.7,28.7,21.3,28.7,18.3z"/>
	</g>
	<text transform="matrix(1 0 0 1 179.4375 9.8493)" class="st0 st1 st2">TM</text>
</g>
</svg>
