<?xml version="1.0" encoding="utf-8"?>
<!-- Generator: Adobe Illustrator 27.6.1, SVG Export Plug-In . SVG Version: 6.00 Build 0)  -->
<svg version="1.1" id="Layer_1" xmlns="http://www.w3.org/2000/svg" xmlns:xlink="http://www.w3.org/1999/xlink" x="0px" y="0px"
	 viewBox="0 0 209 209" style="enable-background:new 0 0 209 209;" xml:space="preserve">
<style type="text/css">
	.st0{fill:#F6E01A;stroke:#2F3180;stroke-width:8.8332;stroke-miterlimit:10;}
	.st1{fill:#FFFFFF;stroke:#2F3180;stroke-width:8.8332;stroke-linecap:round;stroke-linejoin:round;stroke-miterlimit:10;}
	.st2{fill:none;}
	.st3{fill:#2F3180;}
	.st4{fill:#F6E01A;}
	.st5{fill:#F9CB6B;stroke:#2F3180;stroke-width:8.8332;stroke-linecap:round;stroke-miterlimit:10;}
	.st6{fill:none;stroke:#2F3180;stroke-width:6.6249;stroke-linecap:round;stroke-linejoin:round;stroke-miterlimit:10;}
	.st7{fill:#FFFFFF;stroke:#2F3180;stroke-width:8.8332;stroke-miterlimit:10;}
</style>
<g>
	<circle class="st0" cx="104.5" cy="104.5" r="100.1"/>
	<g>
		<path class="st1" d="M176.6,88.4h-25.4v-4.8c0-14-11.4-25.4-25.4-25.4H83.5c-14,0-25.4,11.4-25.4,25.4v4.8H32.7
			c0,0-5.6,26.5,25.2,26.5l0.2,14.7v16.6c0,14,11.4,25.4,25.4,25.4h42.3c14,0,25.4-11.4,25.4-25.4v-16.6l0.2-14.7
			C182.2,114.9,176.6,88.4,176.6,88.4z"/>
		<g>
			<path class="st1" d="M53.4,84.5c0,0-21.4-17.8-12.2-43.2c0,0,7.7,9.7,35.3,17.3l-7,19.5L53.4,84.5z"/>
			<path class="st1" d="M156,84.5c0,0,21.4-17.8,12.2-43.2c0,0-7.7,9.7-35.3,17.3l7,19.5L156,84.5z"/>
		</g>
		<path class="st0" d="M55.2,88.4h98.9c0,0,6.4-45.6-49.5-45.6S55.2,88.4,55.2,88.4z"/>
		<path class="st0" d="M111.4,36H98c-5.6,0-10.3,4.6-10.3,10.3v22c0,1.5,1.2,2.6,2.6,2.6H119c1.5,0,2.6-1.2,2.6-2.6v-22
			C121.6,40.7,117,36,111.4,36z"/>
		<g>
			<path class="st2" d="M104.1,187.6c11.3,0,20.4-9.1,20.4-20.4c0-0.7,0-1.4-0.1-2.1l-4.7,4.7c-8.6,8.6-22.6,8.6-31.2,0l-4.7-4.7
				c-0.1,0.7-0.1,1.4-0.1,2.1C83.7,178.5,92.8,187.6,104.1,187.6z"/>
			<g>
				
					<ellipse transform="matrix(0.2066 -0.9784 0.9784 0.2066 -84.104 207.1658)" class="st3" cx="85.7" cy="155.4" rx="6.1" ry="15.1"/>
			</g>
			<g>
				
					<ellipse transform="matrix(0.9784 -0.2066 0.2066 0.9784 -29.4522 28.9107)" class="st3" cx="123.7" cy="155.4" rx="15.1" ry="6.1"/>
			</g>
			<g>
				<path class="st4" d="M104.5,183.8c-15,0-27.2-12.2-27.2-27.2c0-2.1,1.7-3.7,3.7-3.7c6,0,11.4,3.3,14.2,8.6
					c1.8,3.4,5.3,5.5,9.2,5.5c3.9,0,7.4-2.1,9.2-5.5c2.8-5.3,8.3-8.6,14.2-8.6c2.1,0,3.7,1.7,3.7,3.7
					C131.7,171.6,119.5,183.8,104.5,183.8z"/>
				<path class="st3" d="M127.9,156.6L127.9,156.6 M127.9,156.6c0,12.9-10.5,23.4-23.4,23.4s-23.4-10.5-23.4-23.4
					c4.6,0,8.8,2.6,10.9,6.6c2.4,4.5,7.1,7.5,12.5,7.5c5.4,0,10.1-3,12.5-7.5C119.1,159.2,123.3,156.6,127.9,156.6 M127.9,149.2
					L127.9,149.2c-7.3,0-14.1,4.1-17.5,10.6c-1.2,2.2-3.4,3.5-5.9,3.5c-2.5,0-4.7-1.4-5.9-3.5c-3.5-6.5-10.2-10.6-17.5-10.6
					c-4.1,0-7.5,3.3-7.5,7.5c0,17,13.9,30.9,30.9,30.9c17,0,30.8-13.7,30.9-30.7c0-0.1,0-0.1,0-0.2
					C135.4,152.5,132,149.2,127.9,149.2L127.9,149.2z M127.9,164.1L127.9,164.1L127.9,164.1L127.9,164.1z"/>
			</g>
		</g>
		<line class="st5" x1="57.9" y1="114.9" x2="57.9" y2="101.5"/>
		<line class="st5" x1="151.5" y1="114.9" x2="151.5" y2="101.5"/>
		<path class="st6" d="M58.1,146.3c0,0,4.3-16.1,46.6-16.1s46.6,16.1,46.6,16.1"/>
		<ellipse class="st3" cx="79.8" cy="111.9" rx="7.9" ry="10.4"/>
		<ellipse class="st3" cx="127.9" cy="111.9" rx="7.9" ry="10.4"/>
		<line class="st6" x1="55" y1="74.7" x2="154" y2="74.7"/>
		<circle class="st7" cx="104.7" cy="68.3" r="18.4"/>
	</g>
</g>
</svg>
