<?xml version="1.0" encoding="utf-8"?>
<!-- Generator: Adobe Illustrator 27.6.1, SVG Export Plug-In . SVG Version: 6.00 Build 0)  -->
<svg version="1.1" id="Layer_1" xmlns="http://www.w3.org/2000/svg" xmlns:xlink="http://www.w3.org/1999/xlink" x="0px" y="0px"
	 viewBox="0 0 209 209" style="enable-background:new 0 0 209 209;" xml:space="preserve">
<style type="text/css">
	.st0{fill:#FFA223;}
	.st1{fill:none;stroke:#2F3180;stroke-width:8.8167;stroke-miterlimit:10;}
	.st2{fill:#FBFCFF;}
</style>
<g>
	<g>
		<circle class="st0" cx="104.5" cy="104.5" r="100.1"/>
	</g>
	<g>
		<circle class="st1" cx="104.5" cy="104.5" r="100.1"/>
	</g>
	<path class="st2" d="M145.4,95.7c2.9-12.3-3.8-23.5-21.1-28.1l0,0h0l4-16.9l-10.6-2.5l-4,16.9l6.2,1.5l-16.6-3.9l4-16.9l-10.6-2.5
		l-4,16.9l3.6,0.9L71.8,55l-2.7,11.2l14.4,3.4l-14.3,60.1l-14.4-3.4l-2.5,10.5l20.9,5l-4,16.9l10.6,2.5l4-16.9l-4.9-1.2l15.2,3.6
		l-4,16.9l10.6,2.5l3.7-15.4c7.1,2,32.8,7.2,38.2-19.8c2.2-10.8-2.4-17.6-9.6-21.9l0.1,0C133.2,109.2,142.4,108.3,145.4,95.7z
		 M111.9,76.5c6.9,2.9,14.5,7.8,12.8,15.1c-2.6,11-14.4,9.5-28.7,6.1l5.6-23.7L111.9,76.5z M120.9,127.7c-2.6,11-15.3,9.7-33.3,5.4
		l6.1-25.5l14.7,3.5l0,0C108.3,111.1,123.5,116.7,120.9,127.7z"/>
</g>
</svg>
