<?xml version="1.0" encoding="utf-8"?>
<!-- Generator: Adobe Illustrator 27.6.1, SVG Export Plug-In . SVG Version: 6.00 Build 0)  -->
<svg version="1.1" id="Layer_1" xmlns="http://www.w3.org/2000/svg" xmlns:xlink="http://www.w3.org/1999/xlink" x="0px" y="0px"
	 viewBox="0 0 304.2 304.2" style="enable-background:new 0 0 304.2 304.2;" xml:space="preserve">
<style type="text/css">
	.st0{fill:#FFFFFF;}
</style>
<g>
	<path class="st0" d="M152.1,0C68.2,0,0,68.2,0,152.1s68.2,152.1,152.1,152.1c83.9,0,152.1-68.2,152.1-152.1S235.9,0,152.1,0z
		 M233.6,175.4l-0.2,16.8v26.3c0,24.7-19,45-43.1,47.2c-8.2,10.2-20.5,17.1-34.4,18.2c-1.3,0.1-2.6,0.2-3.9,0.2
		c-2.5,0-4.9-0.2-7.3-0.6c-12.5-1.9-23.4-8.5-31-17.9c-23.8-2.5-42.4-22.7-42.4-47.2v-26.4l-0.2-16.7c-14.3-1.2-25-6.2-32.1-14.9
		c-12-14.8-8-34.6-7.9-35.4c0.7-3.2,3.6-5.6,6.9-5.6h22.1c-10-11.2-27.3-36.9-15.3-70.2c0.9-2.4,3-4.3,5.5-4.6
		c2.6-0.4,5.1,0.6,6.6,2.7c0,0.1,8,9.3,32.8,18.7c8.2-7,18.4-12.1,30.4-15.2c3.5-8.6,11.9-14.6,21.6-14.6H163
		c9.8,0,18.2,6.1,21.6,14.6c12,3.1,22.2,8.2,30.4,15.2c24.8-9.4,32.7-18.7,32.8-18.8c1.5-2.1,4-3,6.6-2.6c2.6,0.4,4.6,2.3,5.5,4.7
		c12,33.3-5.3,58.9-15.3,70.2h22.1c3.3,0,6.2,2.3,6.9,5.6c0.2,0.8,4.2,20.6-7.9,35.4C258.7,169.2,247.9,174.2,233.6,175.4z"/>
	<path class="st0" d="M152.4,198.2c-46.6,0-62.2,12.5-67,18.6l0,1.7c0,13.5,8,25.1,19.6,30.4c-1.3-4.3-2-8.8-2-13.4
		c-3.1-2.4-4.7-5-4.2-7.3c1.1-5.3,12.5-7.3,25.5-4.6c12.9,2.7,22.5,9.2,21.4,14.5c-0.3,1.2-1,2.2-2.2,3.1c2,2.8,5.2,4.5,8.7,4.5
		c3.6,0,6.9-1.8,8.9-4.8c-1-0.8-1.6-1.7-1.8-2.7c-1.1-5.3,8.5-11.8,21.4-14.5c12.9-2.7,24.3-0.7,25.5,4.6c0.5,2.5-1.3,5.3-4.8,7.8
		c-0.1,4.6-0.8,9.1-2.1,13.3c11.9-5.1,20.3-17,20.3-30.7v-1.7C214.5,210.7,198.9,198.2,152.4,198.2z"/>
	<path class="st0" d="M226.4,133.5h-148H67.6H44.4c0,5,0.8,12.4,5.6,18.2c4.4,5.3,11.4,8.5,21,9.6v-14c0-3.9,3.1-7,7-7s7,3.1,7,7
		v21.3l0.3,23.3l0,10.6c0.6-0.4,1.3-0.9,2-1.3c14.3-9,36.1-13.6,65-13.6c28.9,0,50.7,4.6,65,13.6c0.7,0.4,1.4,0.9,2,1.3v-10.5
		l0.3-23.5v-21.3c0-3.9,3.1-7,7-7s7,3.1,7,7v14c9.6-1,16.7-4.2,21-9.6c4.7-5.8,5.6-13.2,5.6-18.2h-23.2H226.4z M112.9,180.3
		c-6.9,0-12.5-7.4-12.5-16.5c0-9.1,5.6-16.5,12.5-16.5c6.9,0,12.5,7.4,12.5,16.5C125.4,172.9,119.8,180.3,112.9,180.3z M189.3,180.3
		c-6.9,0-12.5-7.4-12.5-16.5c0-9.1,5.6-16.5,12.5-16.5c6.9,0,12.5,7.4,12.5,16.5C201.8,172.9,196.2,180.3,189.3,180.3z"/>
	<path class="st0" d="M79.4,77.1c-11.1-4.6-18.8-9.1-24-12.7c-2.7,18.4,5.4,33.3,12.1,42C69,97.5,72.3,86.9,79.4,77.1z"/>
	<path class="st0" d="M249.4,64.4c-5.2,3.7-13,8.2-24.1,12.8c7.1,9.8,10.4,20.4,11.9,29.3C244,97.8,252.2,82.9,249.4,64.4z"/>
	<path class="st0" d="M188.6,94.5c0,1.7-0.1,3.3-0.3,5h8.7h7.5h7.5h1.2h7.9c-0.2-0.6-0.4-1.1-0.6-1.7c-1.9-5.3-4.8-10.6-9-15.6
		c-0.1-0.1-0.2-0.3-0.4-0.4c-1.6-1.8-3.4-3.5-5.3-5.1c-0.7-0.6-1.5-1.2-2.3-1.8c-1.6-1.2-3.3-2.3-5-3.3c-3.7-2.2-7.8-4-12.2-5.5v5.4
		v7v3.4c0.4,1.2,0.8,2.4,1.2,3.7C188.3,88.4,188.6,91.4,188.6,94.5z"/>
	<path class="st0" d="M92.8,99.5h7.5h7.5h8.7c-0.2-1.6-0.3-3.3-0.3-5c0-3.1,0.4-6.1,1.1-9c0.3-1.3,0.7-2.5,1.2-3.7v-3.4v-7V66
		c-4.4,1.5-8.5,3.3-12.2,5.5c-1.8,1-3.4,2.1-5,3.3c-0.8,0.6-1.5,1.2-2.3,1.8c-1.9,1.6-3.6,3.3-5.3,5.1c-0.1,0.1-0.2,0.3-0.4,0.4
		c-4.2,4.9-7.1,10.3-9,15.6c-0.2,0.6-0.4,1.1-0.6,1.7h7.9H92.8z"/>
	<path class="st0" d="M91.8,119.5h34.3c-2.6-2.8-4.9-6-6.5-9.5h-15.6h-7.5h-9.9h-5.4c-0.3,2.3-0.5,4.5-0.7,6.4
		c-0.1,1.1-0.1,2.1-0.1,3.1h4.9H91.8z"/>
	<path class="st0" d="M219.4,119.5h4.9c0-0.9,0-2-0.1-3.1c-0.1-1.9-0.3-4.1-0.7-6.4h-5.4h-9.9h-7.5h-15.6c-1.7,3.5-3.9,6.7-6.5,9.5
		h34.3H219.4z"/>
	<path class="st0" d="M152.4,58.2c5.9,0,11.4,1.4,16.3,3.9c1.3,0.6,2.5,1.3,3.7,2.1v-1.6v-3c0-1.5-0.4-3-1-4.2
		c-1.5-3-4.7-5.1-8.3-5.1h-21.3c-3.6,0-6.7,2.1-8.3,5.1c-0.6,1.3-1,2.7-1,4.2v3v1.6c1.2-0.8,2.4-1.5,3.7-2.1
		C141,59.6,146.5,58.2,152.4,58.2z"/>
	<path class="st0" d="M172.9,243.8c-0.4,0.5-0.7,1.1-1,1.7c-1.3,2.4-3,4.6-5.1,6.4c-4,3.5-9.1,5.6-14.8,5.6
		c-5.7,0-10.9-2.1-14.8-5.6c-2-1.8-3.8-3.9-5.1-6.4c-0.3-0.6-0.7-1.1-1-1.7c-3.6-5.5-9.7-8.8-16.4-8.8c0,2.2,0.2,4.3,0.6,6.4
		c0.6,3.7,1.8,7.2,3.5,10.5c0,0.1,0.1,0.1,0.1,0.2c1.3,2.4,2.8,4.7,4.5,6.8c2.3,2.7,4.9,5.1,7.8,7c5.9,4,13.1,6.3,20.7,6.3
		s14.8-2.3,20.7-6.3c2.9-2,5.5-4.3,7.8-7c1.2-1.4,2.2-2.9,3.2-4.4c0.5-0.8,1-1.7,1.5-2.6c1.6-3.2,2.8-6.7,3.5-10.3
		c0.4-2.1,0.6-4.3,0.6-6.6C182.7,235,176.6,238.3,172.9,243.8z"/>
	<path class="st0" d="M130.7,99.5c0.5,2.2,1.4,4.3,2.5,6.3c0.9,1.6,2,3,3.3,4.3c4,4.2,9.7,6.7,15.9,6.7s11.9-2.6,15.9-6.7
		c1.2-1.3,2.3-2.7,3.3-4.3c1.1-1.9,2-4,2.5-6.3c0.1-0.3,0.1-0.5,0.2-0.8c0.3-1.4,0.4-2.8,0.4-4.2c0-3.2-0.7-6.3-1.9-9
		c-0.1-0.3-0.2-0.5-0.4-0.8c-1.2-2.3-2.7-4.5-4.6-6.2c-4-3.8-9.4-6.2-15.4-6.2S141,74.6,137,78.4c-1.9,1.8-3.4,3.9-4.6,6.2
		c-0.1,0.3-0.2,0.5-0.4,0.8c-1.2,2.8-1.9,5.8-1.9,9c0,1.4,0.1,2.8,0.4,4.2C130.6,99,130.6,99.2,130.7,99.5z"/>
</g>
</svg>
