<?xml version="1.0" encoding="utf-8"?>
<!-- Generator: Adobe Illustrator 27.6.1, SVG Export Plug-In . SVG Version: 6.00 Build 0)  -->
<svg version="1.1" id="Layer_1" xmlns="http://www.w3.org/2000/svg" xmlns:xlink="http://www.w3.org/1999/xlink" x="0px" y="0px"
	 viewBox="0 0 356.5 209.9" style="enable-background:new 0 0 356.5 209.9;" xml:space="preserve">
<style type="text/css">
	.st0{fill:#3EDDC2;stroke:#2F3180;stroke-width:8.8167;stroke-miterlimit:10;}
	.st1{fill:#FFFFFF;stroke:#2F3180;stroke-width:8.8332;stroke-linecap:round;stroke-linejoin:round;stroke-miterlimit:10;}
	.st2{fill:none;}
	.st3{fill:#2F3180;}
	.st4{fill:#F6E01A;}
	.st5{fill:#F9CB6B;stroke:#2F3180;stroke-width:8.8332;stroke-linecap:round;stroke-miterlimit:10;}
	.st6{fill:none;stroke:#2F3180;stroke-width:6.6249;stroke-linecap:round;stroke-linejoin:round;stroke-miterlimit:10;}
	.st7{fill:#B4D93D;stroke:#2F3180;stroke-width:8.8167;stroke-miterlimit:10;}
	.st8{fill:#FFFFFF;stroke:#2F3180;stroke-width:7.7146;stroke-linecap:round;stroke-linejoin:round;stroke-miterlimit:10;}
	.st9{fill:#F6E01A;stroke:#2F3180;stroke-width:7.7146;stroke-linecap:round;stroke-linejoin:round;stroke-miterlimit:10;}
	.st10{fill:#F6E01A;stroke:#2F3180;stroke-width:7.7146;stroke-miterlimit:10;}
	.st11{fill:#FFFFFF;stroke:#2F3180;stroke-width:7.7146;stroke-miterlimit:10;}
</style>
<g>
	<circle class="st0" cx="104.5" cy="104.5" r="100.1"/>
	<g>
		<path class="st1" d="M53.4,88.4c0,0-21.4-17.8-12.2-43.2c0,0,7.7,9.7,35.3,17.3l-7,19.5L53.4,88.4z"/>
		<path class="st1" d="M156,88.4c0,0,21.4-17.8,12.2-43.2c0,0-7.7,9.7-35.3,17.3l7,19.5L156,88.4z"/>
	</g>
	<path class="st1" d="M176.6,86.8h-25.4V82c0-14-11.4-25.4-25.4-25.4H83.5c-14,0-25.4,11.4-25.4,25.4v4.8H32.7
		c0,0-5.6,26.5,25.2,26.5l0.2,14.7v16.6c0,14,11.4,25.4,25.4,25.4h42.3c14,0,25.4-11.4,25.4-25.4V128l0.2-14.7
		C182.2,113.3,176.6,86.8,176.6,86.8z"/>
	<g>
		<path class="st2" d="M104.1,186c11.3,0,20.4-9.1,20.4-20.4c0-0.7,0-1.4-0.1-2.1l-4.7,4.7c-8.6,8.6-22.6,8.6-31.2,0l-4.7-4.7
			c-0.1,0.7-0.1,1.4-0.1,2.1C83.7,176.8,92.8,186,104.1,186z"/>
		<g>
			
				<ellipse transform="matrix(0.2066 -0.9784 0.9784 0.2066 -82.485 205.8396)" class="st3" cx="85.7" cy="153.8" rx="6.1" ry="15.1"/>
		</g>
		<g>
			
				<ellipse transform="matrix(0.9784 -0.2066 0.2066 0.9784 -29.1091 28.8731)" class="st3" cx="123.7" cy="153.8" rx="15.1" ry="6.1"/>
		</g>
		<g>
			<path class="st4" d="M104.5,182.1c-15,0-27.2-12.2-27.2-27.2c0-2.1,1.7-3.7,3.7-3.7c6,0,11.4,3.3,14.2,8.6
				c1.8,3.4,5.3,5.5,9.2,5.5s7.4-2.1,9.2-5.5c2.8-5.3,8.3-8.6,14.2-8.6c2.1,0,3.7,1.7,3.7,3.7C131.6,170,119.5,182.1,104.5,182.1z"
				/>
			<path class="st3" d="M127.9,155L127.9,155 M127.9,155c0,12.9-10.5,23.4-23.4,23.4S81.1,167.9,81.1,155c4.6,0,8.8,2.6,10.9,6.6
				c2.4,4.5,7.1,7.5,12.5,7.5c5.4,0,10.1-3,12.5-7.5C119.1,157.6,123.3,155,127.9,155 M127.9,147.5L127.9,147.5
				c-7.3,0-14.1,4.1-17.5,10.6c-1.2,2.2-3.4,3.5-5.9,3.5s-4.7-1.4-5.9-3.5c-3.5-6.5-10.2-10.6-17.5-10.6c-4.1,0-7.5,3.3-7.5,7.5
				c0,17,13.9,30.9,30.9,30.9c17,0,30.8-13.7,30.9-30.7c0-0.1,0-0.1,0-0.2C135.4,150.9,132,147.5,127.9,147.5L127.9,147.5z
				 M127.9,162.5L127.9,162.5L127.9,162.5L127.9,162.5z"/>
		</g>
	</g>
	<line class="st5" x1="57.9" y1="113.3" x2="57.9" y2="99.8"/>
	<line class="st5" x1="151.4" y1="113.3" x2="151.4" y2="99.8"/>
	<path class="st6" d="M58.1,144.6c0,0,4.3-16.1,46.6-16.1s46.6,16.1,46.6,16.1"/>
	<ellipse class="st3" cx="79.8" cy="110.2" rx="7.9" ry="10.4"/>
	<ellipse class="st3" cx="127.9" cy="110.2" rx="7.9" ry="10.4"/>
	<path class="st3" d="M104.7,53.8h-17v14.8c0,2.8,3.5,4.2,5.4,2.2l0,0c1.5-1.5,4-1.2,5,0.6l3.8,6.8c1.2,2.1,4.3,2.1,5.5,0l3.8-6.8
		c1-1.8,3.6-2.2,5-0.6l0,0c2,2,5.4,0.7,5.4-2.2V53.8H104.7z"/>
</g>
<g>
	<circle class="st7" cx="252" cy="105.4" r="100.1"/>
	<g>
		<g>
			<path class="st8" d="M300.9,165.9l-2.6,2.6c-2.6,2.6-6.8,2.6-9.4,0L182.4,62c-2.6-2.6-2.6-6.8,0-9.4L185,50
				c2.6-2.6,6.8-2.6,9.4,0l106.5,106.5C303.5,159.1,303.5,163.3,300.9,165.9z"/>
			<path class="st9" d="M193.7,61.3c-30.3,30.3-18.9,52.5-18.9,52.5l0,0c21.4-26.1,45.3-50,71.4-71.4l0,0
				C246.2,42.4,224,31,193.7,61.3z"/>
			<path class="st9" d="M197.3,54.5l-10.4,10.4c-2.6,2.6-2.6,6.9,0,9.5l10.4,10.4c2.6,2.6,6.9,2.6,9.5,0l10.4-10.4
				c2.6-2.6,2.6-6.9,0-9.5l-10.4-10.4C204.2,51.9,199.9,51.9,197.3,54.5z"/>
		</g>
		<g>
			<path class="st8" d="M202.9,165.9l2.6,2.6c2.6,2.6,6.8,2.6,9.4,0L321.4,62c2.6-2.6,2.6-6.8,0-9.4l-2.6-2.6
				c-2.6-2.6-6.8-2.6-9.4,0L202.9,156.5C200.3,159.1,200.3,163.3,202.9,165.9z"/>
			<path class="st9" d="M310.1,61.3c30.3,30.3,18.9,52.5,18.9,52.5l0,0c-21.4-26.1-45.3-50-71.4-71.4l0,0
				C257.6,42.4,279.9,31,310.1,61.3z"/>
			<path class="st9" d="M306.5,54.5l10.4,10.4c2.6,2.6,2.6,6.9,0,9.5l-10.4,10.4c-2.6,2.6-6.9,2.6-9.5,0l-10.4-10.4
				c-2.6-2.6-2.6-6.9,0-9.5L297,54.5C299.6,51.9,303.9,51.9,306.5,54.5z"/>
		</g>
		<g>
			<path class="st10" d="M204.3,127h94.9c0,0,6.1-43.7-47.5-43.7S204.3,127,204.3,127z"/>
			<path class="st10" d="M258.2,76.7h-12.8c-5.4,0-9.9,4.4-9.9,9.9v21.1c0,1.4,1.1,2.5,2.5,2.5h27.5c1.4,0,2.5-1.1,2.5-2.5V86.6
				C268,81.2,263.6,76.7,258.2,76.7z"/>
			<path class="st10" d="M200.7,131l3.9-4.3c0.7-0.8,1.7-1.3,2.8-1.3h88.7c1,0,2,0.5,2.8,1.3l3.3,3.7c0.7,0.8,1.2,1.9,1.2,3.1v0.7
				c0,2.4-1.8,4.4-3.9,4.4h-95.9c-2.2,0-3.9-2-3.9-4.4v0C199.6,132.9,200,131.8,200.7,131z"/>
			<circle class="st11" cx="251.8" cy="107.7" r="17.7"/>
		</g>
	</g>
</g>
</svg>
